<svg id="SvgjsSvg1011" width="288" height="288" xmlns="http://www.w3.org/2000/svg" version="1.1" xmlns:xlink="http://www.w3.org/1999/xlink" xmlns:svgjs="http://svgjs.com/svgjs"><defs id="SvgjsDefs1012"></defs><g id="SvgjsG1013"><svg xmlns="http://www.w3.org/2000/svg" viewBox="0 0 26 26" width="288" height="288"><g fill="#ffffff" transform="translate(5 -1031.362)" class="colorfff svgShape"><circle cx="8" cy="1044.362" r="13" fill="#424242" fill-rule="evenodd" class="color424242 svgShape"></circle><path style="line-height:normal;text-indent:0;text-align:start;text-decoration-line:none;text-decoration-style:solid;text-decoration-color:#000;text-transform:none;block-progression:tb;isolation:auto;mix-blend-mode:normal" fill="#1f212a" d="M11.947 25.947A13 13 0 0 0 13 26a13 13 0 0 0 .92-.033 13 13 0 0 0 1.289-.156 13 13 0 0 0 1.268-.286 13 13 0 0 0 1.234-.408 13 13 0 0 0 1.185-.531 13 13 0 0 0 1.127-.647 13 13 0 0 0 1.057-.755 13 13 0 0 0 .977-.858 13 13 0 0 0 .886-.951 13 13 0 0 0 .786-1.035 13 13 0 0 0 .68-1.108 13 13 0 0 0 .566-1.17 13 13 0 0 0 .445-1.22 13 13 0 0 0 .32-1.26 13 13 0 0 0 .196-1.285A13 13 0 0 0 26 13a13 13 0 0 0-.033-.92 13 13 0 0 0-.016-.129L21 7H5v12l6.947 6.947z" color="#000" font-family="sans-serif" font-weight="400" transform="translate(-5 1031.362)" class="color1f212a svgShape"></path><path d="M0 2v12h16V2H0Zm1 1h14v10H1V3Zm5 1C3.793 4 2 5.793 2 8s1.793 4 4 4h4c2.207 0 4-1.793 4-4s-1.793-4-4-4H6Zm0 1h4c1.67 0 3 1.33 3 3s-1.33 3-3 3H6c-1.67 0-3-1.33-3-3s1.33-3 3-3Zm0 1c-1.1 0-2 .9-2 2s.9 2 2 2h4c1.1 0 2-.9 2-2s-.9-2-2-2H6Zm0 1h4c.563 0 1 .437 1 1s-.437 1-1 1H6c-.563 0-1-.437-1-1s.437-1 1-1Z" color="#000" font-family="sans-serif" font-weight="400" overflow="visible" transform="translate(0 1036.362)" style="line-height:normal;text-indent:0;text-align:start;text-decoration-line:none;text-decoration-style:solid;text-decoration-color:#000;text-transform:none;block-progression:tb;isolation:auto;mix-blend-mode:normal" fill="#ea1b1b" class="color000 svgShape"></path></g></svg></g></svg>