<svg xmlns="http://www.w3.org/2000/svg" viewBox="0 0 370.86 512" id="english-book"><defs><linearGradient id="a" x2="370.86" y1="256" y2="256" gradientUnits="userSpaceOnUse"><stop offset="0" stop-color="#012451"></stop><stop offset="1" stop-color="#00acd4"></stop></linearGradient></defs><path fill="url(#a)" d="M33.43,445.14H370.86v23.43H1.53A33.49,33.49,0,0,1,33.43,445.14ZM76,314.86H370.86V425.14H76Zm66.86,33.43a10,10,0,0,0,10,10H294a10,10,0,0,0,0-20H152.86A10,10,0,0,0,142.86,348.29Zm-32.57,43.42a10,10,0,0,0,10,10H326.57a10,10,0,0,0,0-20H120.29A10,10,0,0,0,110.29,391.71ZM56,425.14V0H28A28,28,0,0,0,0,28V436.94a53.15,53.15,0,0,1,33.43-11.8Zm165.81-269a7.62,7.62,0,1,0,0-15.23H209.58v15.25h4.07ZM33.43,512H370.86V488.57H1.53A33.49,33.49,0,0,0,33.43,512ZM139.74,155.92l-8.64,22.7h17.21ZM76,43.43H370.86V294.86H76ZM265,169.14a48.34,48.34,0,0,0,48.28,48.28A40.8,40.8,0,0,0,341,207.28a40.23,40.23,0,0,0,4.11-4.24,10,10,0,1,0-15.32-12.85,20.47,20.47,0,0,1-2.1,2.16,20.86,20.86,0,0,1-14.35,5.07,28.28,28.28,0,1,1,15.8-51.73,10,10,0,1,0,11.19-16.57,48.28,48.28,0,0,0-75.27,40Zm-75.46,38.28a10,10,0,0,0,10,10h0s20.44-.09,26.08-.09a30.6,30.6,0,0,0,19.5-54.18,27.6,27.6,0,0,0-23.39-42.28H199.58a10,10,0,0,0-10,10v76.55Zm-83.71,9.34a9.88,9.88,0,0,0,3.56.66,10,10,0,0,0,9.34-6.44l4.71-12.36h32.38L160.51,211a10,10,0,0,0,18.71-7.06l-28.48-75.48c0-.09-.07-.18-.11-.27a11.68,11.68,0,0,0-10.85-7.27h0a11.68,11.68,0,0,0-10.85,7.29l-.09.23-28.75,75.47A10,10,0,0,0,105.87,216.76Zm130.43-30a10.61,10.61,0,0,0-10.6-10.6H209.58v21.25c6,0,13.14,0,16.12,0A10.61,10.61,0,0,0,236.3,186.72ZM76,0V23.43H370.86V0Z" data-name="Layer 2"></path></svg>